Coordinates
version=1
nRows=4
nColumns=63
inDegrees=yes

Units are S.I. units (second, meters, Newtons, ...)
If the header above contains a line with 'inDegrees', this indicates whether rotational values are in degrees (yes) or radians (no).

endheader
time	pelvis_tilt	pelvis_list	pelvis_rotation	pelvis_tx	pelvis_ty	pelvis_tz	hip_flexion_r	hip_adduction_r	hip_rotation_r	knee_angle_r	knee_angle_r_beta	ankle_angle_r	subtalar_angle_r	mtp_angle_r	hip_flexion_l	hip_adduction_l	hip_rotation_l	knee_angle_l	knee_angle_l_beta	ankle_angle_l	subtalar_angle_l	mtp_angle_l	L5_S1_Flex_Ext	L5_S1_Lat_Bending	L5_S1_axial_rotation	L4_L5_Flex_Ext	L4_L5_Lat_Bending	L4_L5_axial_rotation	L3_L4_Flex_Ext	L3_L4_Lat_Bending	L3_L4_axial_rotation	L2_L3_Flex_Ext	L2_L3_Lat_Bending	L2_L3_axial_rotation	L1_L2_Flex_Ext	L1_L2_Lat_Bending	L1_L2_axial_rotation	L1_T12_Flex_Ext	L1_T12_Lat_Bending	L1_T12_axial_rotation	Abs_r3	Abs_r2	Abs_r1	Abs_t1	Abs_t2	neck_flexion	neck_bending	neck_rotation	arm_flex_r	arm_add_r	arm_rot_r	elbow_flex_r	pro_sup_r	wrist_flex_r	wrist_dev_r	arm_flex_l	arm_add_l	arm_rot_l	elbow_flex_l	pro_sup_l	wrist_flex_l	wrist_dev_l
      7.96551724	      0.16615270	     -2.27109544	     93.62686542	      0.18173821	      0.95809329	      0.52262889	      0.21770495	     -1.21029357	    -10.29503826	      2.66803077	      0.04656592	     14.93613657	     -1.28359583	      0.00000000	      0.50036327	     -1.57871626	     10.41351037	      1.53041017	      0.02671070	      3.20178610	    -15.33492235	      0.00000000	      0.14167611	      0.24014179	     -0.60095297	      0.26310671	      0.31938858	     -0.63851253	      0.23275969	      0.58388075	     -0.63851253	      0.16192163	      0.58388075	     -0.52583385	      0.13156044	      0.48969714	     -0.48827429	      0.08095373	      0.37197963	     -0.45071473	      1.01197831	      2.71653197	     -3.34232013	      0.00000000	      0.00000000	     24.25775956	     -4.18303439	      2.74014131	     14.82942921	    -16.01051296	    114.96508624	      6.52452443	     10.08173162	      0.34757719	     -5.28701252	     20.24163149	    -10.01292239	    134.97784748	      0.73451677	      3.10475478	    -13.61418712	    -13.89854925
      7.98275862	     -0.00124525	     -2.41939477	     93.80355937	      0.18177341	      0.95915475	      0.52403090	      0.41500685	     -1.36788946	    -10.57188351	      2.63017385	      0.04590519	     14.32737967	     -1.80288542	      0.00000000	      0.77949141	     -1.39737560	     10.52767539	      1.61114811	      0.02811984	      3.24739691	    -15.55146323	      0.00000000	      0.14870892	      0.21320942	     -0.54146573	      0.27616734	      0.28356853	     -0.57530734	      0.24431389	      0.51839739	     -0.57530734	      0.16995943	      0.51839739	     -0.47378252	      0.13809111	      0.43477665	     -0.43994091	      0.08497228	      0.33026139	     -0.40609930	      1.06221297	      2.41186761	     -3.01146997	      0.00000000	      0.00000000	     23.95004167	     -4.25702387	      2.20339625	     15.66740107	    -13.92590670	    127.27649231	      3.51098579	      4.46266785	      2.70667894	     -5.94133775	     22.17652436	     -8.27974430	    141.31471364	      0.61190602	      2.61835229	    -16.46698230	    -12.65482993
      8.00000000	     -0.07753468	     -2.49244460	     94.17143879	      0.18145909	      0.96014480	      0.52522991	      0.48112625	     -1.42977169	    -11.08212009	      2.56450982	      0.04475914	     13.96347141	     -2.10039857	      0.00000000	      1.02212956	     -1.30961785	     10.56126499	      1.74902876	      0.03052631	      3.51615401	    -15.25126468	      0.00000000	      0.15447882	      0.19901722	     -0.58776834	      0.28688262	      0.26469290	     -0.62450386	      0.25379325	      0.48389046	     -0.62450386	      0.17655384	      0.48389046	     -0.51429730	      0.14344903	      0.40583591	     -0.47756177	      0.08826920	      0.30827767	     -0.44082625	      1.10342676	      2.25132257	     -3.26899117	      0.00000000	      0.00000000	     23.56795474	     -4.30051609	      1.94200499	     16.44847392	    -12.13690672	    129.94690184	      2.18341563	      4.45839266	      4.78559083	     -6.88076571	     23.73411654	     -6.51263294	    144.36575248	      0.61513928	      3.44778928	    -18.72327656	    -12.15154741
      8.01724138	     -0.12124028	     -2.56396893	     94.14658762	      0.18141040	      0.96103422	      0.52639547	      0.60781544	     -1.48483652	    -11.18120682	      2.57477428	      0.04493829	     13.80701547	     -2.09843978	      0.00000000	      1.15640801	     -1.25299509	     10.42813665	      1.75237256	      0.03058467	      3.59653520	    -15.20827866	      0.00000000	      0.16941484	      0.19479235	     -0.62565188	      0.31462031	      0.25907382	     -0.66475512	      0.27833165	      0.47361811	     -0.66475512	      0.19362422	      0.47361811	     -0.54744540	      0.15731862	      0.39722055	     -0.50834215	      0.09680364	      0.30173335	     -0.46923891	      1.21011328	      2.20352999	     -3.47968806	      0.00000000	      0.00000000	     23.07919596	     -4.33107321	      2.01620352	     17.37833648	    -10.25599653	    129.94487351	      2.10894326	      4.47797937	      4.89427377	     -7.17624890	     25.03879800	     -4.77003730	    144.55358059	      0.67194183	      3.70971109	    -18.72114216	    -12.35525333
